<?xml version="1.0" standalone="no"?>
<!DOCTYPE svg PUBLIC "-//W3C//DTD SVG 20010904//EN"
 "http://www.w3.org/TR/2001/REC-SVG-20010904/DTD/svg10.dtd">
<svg version="1.0" xmlns="http://www.w3.org/2000/svg"
 width="1957.000000pt" height="545.000000pt" viewBox="0 0 1957.000000 545.000000"
 preserveAspectRatio="xMidYMid meet">
<metadata>
Created by potrace 1.16, written by Peter Selinger 2001-2019
</metadata>
<g transform="translate(0.000000,545.000000) scale(0.100000,-0.100000)"
fill="#000000" stroke="none">
<path d="M2055 4912 c-57 -7 -60 -8 -59 -34 0 -16 1 -145 2 -288 l2 -260 275
0 275 0 0 248 c0 136 3 263 6 283 l6 36 -48 7 c-74 9 -391 15 -459 8z"/>
<path d="M1126 4598 c-569 -353 -945 -955 -1021 -1630 -102 -910 372 -1795
1180 -2205 536 -272 1149 -307 1712 -97 327 122 689 374 903 629 282 338 460
727 514 1127 64 469 -11 915 -220 1318 -159 305 -363 548 -622 743 -87 65
-226 157 -238 157 -2 0 -4 -130 -4 -289 l0 -289 123 -124 c221 -221 353 -447
433 -736 98 -358 85 -711 -40 -1055 -138 -382 -449 -735 -812 -922 -281 -144
-617 -214 -895 -185 -334 34 -612 140 -867 329 -652 484 -874 1365 -527 2098
93 197 194 336 367 504 l98 97 -2 290 -3 289 -79 -49z"/>
<path d="M7367 3168 c-3 -1509 -2 -1472 -52 -1661 -34 -129 -95 -204 -210
-257 -136 -63 -390 -81 -521 -38 -116 38 -203 139 -238 275 l-12 48 -231 3
-230 2 14 -92 c52 -357 259 -599 600 -700 71 -21 97 -23 293 -23 226 0 305 10
450 57 356 116 539 363 620 837 38 223 40 308 40 1649 l0 1312 -260 0 -259 0
-4 -1412z"/>
<path d="M2000 2900 l0 -1110 275 0 275 0 0 1110 0 1110 -275 0 -275 0 0
-1110z"/>
<path d="M9530 3594 c-299 -54 -468 -136 -656 -316 -199 -191 -326 -440 -391
-763 -26 -130 -26 -577 0 -715 30 -160 75 -299 136 -425 167 -342 428 -550
791 -630 103 -23 394 -31 513 -15 537 73 905 451 1019 1048 20 104 23 148 23
392 -1 221 -4 294 -19 370 -56 302 -154 515 -318 697 -160 178 -341 279 -603
338 -68 16 -436 30 -495 19z m435 -430 c252 -86 394 -284 462 -644 26 -137 26
-544 0 -680 -68 -360 -234 -593 -487 -687 -70 -26 -86 -27 -230 -28 -144 0
-161 2 -237 28 -256 88 -408 300 -470 657 -26 151 -26 545 0 680 67 345 243
587 487 673 98 34 111 36 265 32 109 -3 143 -8 210 -31z"/>
<path d="M15009 3584 c-257 -46 -492 -175 -683 -374 -270 -283 -395 -623 -396
-1077 0 -267 34 -454 122 -656 131 -304 405 -567 711 -682 156 -58 233 -69
482 -70 181 0 251 4 330 19 206 38 429 117 547 195 126 83 125 65 19 249 -127
221 -105 204 -190 142 -97 -71 -212 -125 -334 -157 -93 -25 -119 -27 -287 -28
-166 0 -193 2 -265 24 -44 13 -116 41 -160 63 -266 134 -426 405 -452 771 l-8
117 1006 0 1007 0 17 91 c23 119 16 391 -13 519 -109 468 -460 779 -967 855
-124 18 -382 18 -486 -1z m491 -432 c284 -84 474 -311 497 -594 l6 -78 -772 0
c-667 0 -771 2 -771 15 0 32 23 124 48 190 94 254 325 439 612 489 14 3 90 3
170 1 105 -3 163 -9 210 -23z"/>
<path d="M18061 3580 c-222 -49 -403 -165 -516 -333 l-34 -51 -25 55 c-14 30
-49 110 -79 179 l-54 125 -172 3 -171 2 0 -1395 0 -1395 245 0 245 0 0 1029 0
1029 39 49 c69 87 166 162 292 224 114 56 210 79 334 79 274 0 443 -113 514
-344 49 -159 51 -204 51 -1166 l0 -900 245 0 246 0 -3 992 c-4 987 -4 994 -27
1102 -80 387 -261 606 -576 698 -90 26 -118 30 -280 34 -155 3 -193 1 -274
-16z"/>
<path d="M11778 2145 l595 -1425 67 0 66 0 604 1408 c332 774 605 1415 608
1425 4 16 -13 17 -254 17 l-259 -1 -370 -969 c-203 -534 -372 -970 -375 -970
-3 0 -170 435 -370 968 l-365 967 -271 3 -271 2 595 -1425z"/>
</g>
</svg>
